<svg width="734" height="733" viewBox="0 0 734 733" fill="none" xmlns="http://www.w3.org/2000/svg">
<path d="M68.262 414.391H679.684L689.96 392.359V360.045H688.492V392.359H590.136L585.732 382.077H573.988V379.14H583.53V377.671H573.988C573.988 377.671 571.786 373.999 566.648 373.999C560.776 373.999 560.776 374.733 560.776 376.202V382.077H553.436C553.436 382.077 553.436 376.936 551.234 376.202C549.766 375.468 546.096 375.468 546.096 375.468V371.796H554.17V370.327H544.628C544.628 370.327 539.49 367.389 535.82 367.389C532.15 367.389 529.948 367.389 529.948 369.592V375.468H524.81L524.076 373.264V368.124L527.012 363.717V360.78H521.874V357.842H511.598V355.639C511.598 355.639 515.268 354.17 516.736 354.17H518.204V353.436H515.268C515.268 353.436 513.066 351.232 510.864 351.232C508.662 351.232 507.194 353.436 507.194 354.17C507.194 354.904 509.396 355.639 509.396 355.639V357.842H507.194V361.514H499.854L497.652 359.311V356.373L502.056 352.701V350.498H495.45V344.623H491.78V341.685C491.78 341.685 494.716 339.482 494.716 338.013C494.716 336.544 492.514 335.076 489.578 335.076C486.642 335.076 484.44 340.951 484.44 340.951L485.908 343.154V345.357L484.44 346.092V351.232H480.036V353.436H474.898L472.696 343.888L477.1 341.685L471.962 340.951L469.76 337.279V333.607L480.77 332.138V329.2H480.036L479.302 330.669L469.026 331.404L467.558 318.919H466.824L466.09 331.404L453.612 332.138L452.144 314.512L455.814 313.778L458.75 311.575V310.84H453.612L452.144 265.308H451.41L450.676 310.84H441.868V312.309H446.272L449.208 315.247V331.404H447.74V333.607H449.208L455.08 354.904V354.904L451.41 336.544L450.676 332.138L455.814 332.872L461.686 335.076L460.218 341.685H455.08V343.154H459.484L456.548 353.436H450.676V360.78L445.538 362.248L438.198 358.576L436.73 359.311L438.198 360.78L444.07 363.717V368.124H441.868C441.868 368.124 441.134 365.92 439.666 365.92C437.464 365.92 438.198 368.124 438.198 368.124H433.06V361.514H431.592V365.186L430.124 368.124H426.454C426.454 368.124 425.72 364.452 423.518 365.186C421.316 365.186 421.316 368.124 421.316 368.124H416.178L412.508 338.748L415.444 337.279V335.076H411.774V327.732C411.774 327.732 417.646 322.591 417.646 319.653C417.646 316.716 406.636 307.168 406.636 307.168V304.231H402.966V307.168H393.424L391.956 291.012C391.956 291.012 391.956 290.277 393.424 291.012C394.892 291.012 395.626 295.418 397.094 295.418C398.562 295.418 403.7 294.684 403.7 293.949C403.7 293.949 403.7 292.48 402.232 290.277C400.764 288.074 391.222 283.668 391.222 283.668L391.956 253.557C391.956 253.557 394.892 251.354 397.828 252.823C400.764 254.292 404.434 255.026 405.168 255.026C405.902 255.026 408.838 254.292 408.838 254.292L407.37 244.744C407.37 244.744 406.636 245.479 404.434 245.479C402.232 245.479 397.094 243.276 395.626 243.276C394.158 243.276 391.956 244.744 391.956 244.744C391.956 244.744 391.956 244.01 391.222 244.01C390.488 244.01 390.488 245.479 390.488 245.479V280.73L387.552 279.996C387.552 279.996 383.882 277.058 383.148 277.058C382.414 277.058 382.414 279.261 382.414 279.261C382.414 279.261 374.34 299.09 375.808 299.824C376.542 300.559 380.946 302.028 382.414 302.028C383.882 302.028 389.02 292.48 389.02 292.48L387.552 306.434H378.01L374.34 304.231L371.404 304.965L369.202 307.168C369.202 307.168 383.148 313.778 383.882 315.247C383.882 316.716 380.946 321.122 380.946 321.122L375.808 322.591L373.606 323.325L372.872 318.184L369.202 317.45C369.202 317.45 369.936 313.778 367.734 313.778C365.532 313.778 364.798 316.716 365.532 317.45C367 318.184 367.734 318.919 367.734 318.919L371.404 319.653V324.06H369.936V326.997H378.01L380.212 329.2L378.01 354.17H377.276L376.542 343.888C376.542 343.888 372.872 340.216 366.266 340.216C359.66 340.216 358.192 340.216 358.192 340.216V346.092H352.32L351.586 342.42L349.384 340.951V339.482C349.384 339.482 352.32 338.748 352.32 336.544C352.32 335.076 350.852 333.607 349.384 332.872C348.65 332.138 347.182 331.404 347.182 331.404L346.448 297.621H345.714V331.404C345.714 331.404 341.31 332.872 341.31 335.81C341.31 338.013 344.246 340.216 344.246 340.216V341.685H340.576V348.295H317.088V360.045H314.886L314.152 358.576H310.482V362.248L314.886 365.92V371.061H313.418V375.468H311.216V371.061H308.28V362.983H291.398L288.462 357.842H282.59C282.59 357.842 281.122 357.842 281.122 358.576C280.388 359.311 280.388 359.311 280.388 359.311H267.91V360.045H277.452C277.452 360.045 277.452 360.78 277.452 361.514L278.186 362.248V363.717C278.186 363.717 276.718 364.452 275.984 364.452C275.25 365.186 272.314 367.389 272.314 367.389H265.708V368.124H269.378V369.592H272.314C272.314 369.592 273.782 370.327 274.516 370.327C275.25 370.327 275.25 371.796 275.25 371.796V376.202H273.782V381.343H254.698V375.468C254.698 375.468 259.102 373.264 259.102 367.389C259.102 362.248 256.166 359.311 251.028 359.311C245.89 359.311 239.284 359.311 239.284 359.311C239.284 359.311 231.944 362.248 230.476 363.717C229.008 365.92 228.274 367.389 228.274 367.389L179.096 365.186V367.389L226.806 371.796V376.936L216.53 387.952L166.618 385.749C166.618 385.749 165.15 381.343 157.81 381.343C151.204 381.343 25.69 373.264 25.69 373.264C25.69 373.264 22.754 373.264 23.488 375.468C24.222 376.936 39.636 384.28 49.912 396.031C60.188 407.781 66.794 413.656 66.794 413.656L68.262 414.391Z" fill="white"/>
</svg>
