<svg version="1.0" xmlns="http://www.w3.org/2000/svg" width="506.667" height="506.667" viewBox="0 0 380 380" preserveAspectRatio="xMidYMid meet"><path d="M60.8 3.2C33 5.9 9.2 26.9 2.1 54.7 0 62.9 0 63.8.2 193.2l.3 130.3 2.3 6.5c8.1 22.3 23.3 37.5 45.2 45.1 5.8 2 9 2.3 28.3 2.7 17.7.3 21.7.1 21.8-1 .3-7.8.3-15.1-.1-15.8-.3-.4-9.3-1-20-1.3-21-.5-25.8-1.5-35.6-7.2-10.5-6.1-20.7-20.6-23.3-33-.7-3.4-1-45.8-1-129 0-136.4-.3-130.7 6.1-142.7 5.3-10 15.4-19.2 25.6-23.1 7.8-3.1 13.3-3.8 30.8-3.8 14.1-.1 17.4-.4 17.5-1.5.1-1.8.1-14 0-15.7-.1-1.4-25.2-1.8-37.3-.5zm220 4.2c-.2 2.8-.2 7 0 9.3l.3 4.2 18.2.1c19.6 0 24.3.8 33.8 5.4 12.4 6.1 22.4 18.5 25.9 32.2 1.9 7.5 2 11.4 2 132.2 0 138.2.4 130.4-6.7 143.1-4.9 8.8-12.8 16.3-21.6 20.5-9.9 4.7-14.4 5.4-34.1 5.6-9.3 0-17.2.3-17.4.5-.4.4-.6 10.9-.3 15.9.1 1.7 1.2 1.8 21.9 1.4 19.1-.5 22.5-.8 28.2-2.8 12.7-4.3 21.7-10.1 30.1-19.2 7.6-8.2 14.9-21.9 16.4-30.8.3-1.9.8-4.4 1.2-5.5.8-2.7.6-252.9-.2-258.5-4.2-28.8-28-52.7-57.5-57.6-1.9-.4-11.7-.7-21.7-.8l-18.1-.2-.4 5zM140.4 117.9c-.2.2-.4 33-.4 72.8V263l4.8.1c5 .1 12.7.1 17.8 0l3.1-.1v-55.4l24.9-.1c23-.2 25.5-.3 32.9-2.5 19.2-5.6 29.4-19.1 30.1-40 .6-17.2-3.9-28.3-15.1-37.9-3.1-2.6-12-6.9-15.7-7.6-1.3-.3-3.6-.8-5.3-1.2-3.2-.7-76.3-1.1-77.1-.4zm71.5 21.5c9.9 2 15.7 9.7 16.2 21.6.5 12.1-5.1 20.4-16.4 24-4 1.3-44.1 1.9-45.3.7-.6-.5-.9-33.5-.5-44.7l.1-2.5 21.3.1c11.6.1 22.7.4 24.6.8z" fill="#FFF"/></svg>